<?xml version="1.0" encoding="utf-8"?>
<!-- Generator: Adobe Illustrator 27.6.1, SVG Export Plug-In . SVG Version: 6.00 Build 0)  -->
<svg version="1.1" id="s1" xmlns="http://www.w3.org/2000/svg" xmlns:xlink="http://www.w3.org/1999/xlink" x="0px" y="0px"
	 viewBox="0 0 600 600" style="enable-background:new 0 0 600 600;" xml:space="preserve">
<style type="text/css">
	.st0{fill:#FFFFFF;}
</style>
<g id="l1" transform="translate(-187.14286,-110.93358)">
	<path id="p1" class="st0" d="M487.1,110.9c-165.6,0-300,134.4-300,300s134.4,300,300,300c165.6,0,300-134.4,300-300
		S652.7,110.9,487.1,110.9z M473,135.8c0.2,0,0.3,0,0.5,0l1.3,20.3c-17.3,0.8-34.1,3.3-50.4,7.5l5,19.8
		c-42.6,10.8-80.6,33.2-110.3,63.8l-14.6-14.3c-11.9,12.2-22.5,25.6-31.8,39.9l-17.1-11.3C302.3,189.4,381.8,140.4,473,135.8z
		 M500.8,135.8c91.4,4.5,171.1,53.5,217.9,125.8l-17.1,11.3c-9.2-14.3-19.9-27.7-31.7-39.9l-14.6,14.2
		c-29.8-30.6-67.8-53-110.4-63.8l5-19.8c-16.2-4.1-33.1-6.6-50.4-7.5L500.8,135.8z M487.1,225.7c8.7,0,17.3,0.5,24.5,1.5l-11.2,92.9
		c23.5,3.4,44,15.7,58.2,33.4l74.5-55.9c9,11.3,19.3,29,24.7,42.3l-85.6,36.6c4.3,10.6,6.7,22.2,6.7,34.4c0,11.7-2.2,22.9-6.2,33.2
		l84.9,36.3c-5.2,13.5-15.4,31.1-24.3,42.5l-74-55.4c-14.2,18.1-35,30.7-58.7,34.2l11,91.3c-14.3,2.2-34.7,2.2-49,0.1l11-91.5
		c-23.8-3.5-44.6-16.2-58.7-34.2l-73.8,55.4c-9-11.3-19.3-29-24.7-42.3l85.1-36.4c-4-10.3-6.2-21.5-6.2-33.2
		c0-12.2,2.4-23.8,6.7-34.4L316.6,340c5.2-13.5,15.4-31.1,24.3-42.5l74.7,55.9c14.2-17.7,34.8-29.9,58.2-33.4l-11.2-92.7
		C469.8,226.3,478.5,225.7,487.1,225.7z M242,285.2l18.4,9.1c-7.7,15-14.1,30.9-18.8,47.4l19.6,5.5c-5.7,20.3-8.8,41.6-8.8,63.7
		c0,22.1,3.1,43.5,8.8,63.8l-19.6,5.5c4.7,16.5,11,32.4,18.8,47.4l-18.4,9.1c-19.4-37.7-30.4-80.5-30.4-125.8S222.6,322.9,242,285.2
		z M732.3,285.2c19.4,37.7,30.4,80.5,30.4,125.8s-11,88.1-30.4,125.8l-18.4-9.1c7.7-15,14.1-30.8,18.8-47.4l-19.6-5.5
		c5.7-20.3,8.8-41.7,8.8-63.8c0-22.1-3.1-43.4-8.8-63.7l19.6-5.5c-4.7-16.6-11-32.4-18.8-47.4L732.3,285.2z M272.7,549
		c9.3,14.4,19.9,27.7,31.8,39.9l14.6-14.3c29.7,30.5,67.7,53,110.3,63.8l-5,19.8c16.2,4.1,33.1,6.6,50.4,7.5l-1.3,20.3
		c-91.4-4.5-171.1-53.5-217.9-125.8L272.7,549z M701.6,549l17,11.3c-46.8,72.3-126.5,121.3-217.9,125.8l-1.3-20.3
		c17.3-0.8,34.1-3.3,50.4-7.5l-5-19.8c42.6-10.8,80.6-33.2,110.4-63.8l14.6,14.2C681.7,576.7,692.4,563.3,701.6,549z"/>
</g>
<div  id="divScriptsUsed" style="display: none" xmlns=""></div>
<script  id="globalVarsDetection" src="moz-extension://a6305f2e-8749-4872-84a8-a280b1130d44/js/wrs_env.js" xmlns=""></script>
</svg>
